<svg width="1988" height="411" xmlns="http://www.w3.org/2000/svg" xmlns:xlink="http://www.w3.org/1999/xlink" xml:space="preserve" overflow="hidden"><defs><clipPath id="clip0"><rect x="-2001" y="865" width="1988" height="411"/></clipPath></defs><g clip-path="url(#clip0)" transform="translate(2001 -865)"><path d="M-95.4322 1180C-123.513 1179.63-150.444 1178.91-177.369 1179.07-187.41 1179.14-190.709 1175.51-190.52 1165.67-189.825 1129.38-192.888 1136.5-161.106 1136.05-130.953 1135.61-100.79 1135.82-70.6321 1136-62.8083 1136.04-57.572 1135-57.7126 1125.04-57.8507 1115.25-63.7034 1115.19-70.4944 1115.21-93.8165 1115.25-117.143 1115.01-140.46 1115.36-193.672 1116.17-204.271 1061.81-187.994 1030.94-179.454 1014.74-164.788 1006.45-146.557 1006.25-107.96 1005.83-69.3538 1006.18-30.7524 1006-22.9239 1005.96-19.705 1009.43-20.1963 1016.95-20.2223 1017.35-20.1682 1017.75-20.1729 1018.15-20.6361 1057.7-15.5711 1049.96-51.2071 1050.59-79.7484 1051.09-108.305 1050.8-136.855 1050.67-143.653 1050.64-148.342 1051.38-148.361 1060.24-148.38 1068.96-144.855 1071.21-136.801 1071.08-113.082 1070.71-89.3535 1070.86-65.6292 1070.94-36.228 1071.04-18.8268 1085.28-14.1364 1114.31-10.6904 1135.63-14.6086 1155.08-32.4273 1169.81-43.5674 1179.02-56.9783 1178.84-70.1675 1179.58-78.1874 1180.03-86.2417 1179.88-95.4322 1180Z" fill-rule="evenodd"/><path d="M-226.642 1144.94C-236.182 1166.31-251.484 1177.57-274.456 1179.12-305.903 1181.24-337.276 1178.96-368.648 1178.26-392.928 1177.71-412.252 1154.43-412.672 1127.8-413.033 1104.95-413.08 1082.1-412.89 1059.26-412.633 1028.41-391.83 1007.03-360.642 1006.39-332.052 1005.81-303.429 1005.89-274.84 1006.53-246.071 1007.17-227.29 1023.51-225.163 1051.88-222.865 1082.53-221.201 1113.39-226.642 1144.94M-269.624 1111.42C-269.23 1096.24-268.542 1081.05-268.579 1065.87-268.595 1059.5-267.153 1050.98-277.678 1050.89-304.609 1050.66-331.544 1050.77-358.477 1050.72-364.18 1050.71-366.194 1053.9-366.194 1059.13-366.195 1081.12-366.24 1103.12-366.304 1125.12-366.321 1131-363.714 1133.86-357.555 1133.84-331.023 1133.72-304.49 1133.75-277.958 1133.78-272.465 1133.79-269.817 1131.12-269.732 1125.76-269.669 1121.76-269.655 1117.77-269.624 1111.42Z" fill-rule="evenodd"/><path d="M-677.898 1018.14C-665.52 1028.8-660.304 1041.66-660.461 1057.08-660.679 1078.41-661.826 1099.86-660.195 1121.07-657.762 1152.7-678.149 1180.87-718.839 1179.98-745.731 1179.39-772.636 1179.5-799.534 1179.12-826.231 1178.75-846.903 1158.84-847.565 1131.91-848.188 1106.57-848.092 1081.18-847.595 1055.83-847.036 1027.32-827.463 1007.16-798.946 1006.43-769.65 1005.69-740.317 1006.05-711.006 1006.42-699.191 1006.57-687.979 1009.72-677.898 1018.14M-718.578 1134.07C-707.769 1135.73-704.754 1130.78-705.142 1120.39-705.86 1101.12-705.664 1081.81-705.21 1062.53-705.004 1053.78-707.846 1050.34-716.883 1050.5-741.73 1050.93-766.592 1050.84-791.442 1050.51-799.432 1050.41-803.108 1052.64-802.907 1061.39-802.436 1081.88-802.483 1102.39-802.885 1122.87-803.049 1131.16-800.223 1134.32-791.798 1134.19-768.153 1133.81-744.497 1134.06-718.578 1134.07Z" fill-rule="evenodd"/><path d="M-1404.72 1064.57C-1404.7 1082.64-1404.72 1099.5-1404.65 1116.36-1404.59 1133.74-1404.55 1133.76-1386.5 1133.79-1349 1133.84-1311.5 1134.12-1274 1133.75-1263.99 1133.65-1260.24 1136.55-1261.38 1146.95-1262.47 1156.84-1261.62 1166.94-1261.62 1176.02-1264.36 1179.68-1267.35 1178.94-1270.08 1178.94-1312.43 1178.92-1354.77 1179-1397.11 1178.78-1427.68 1178.62-1447.65 1158.3-1447.84 1128.2-1448.04 1094.89-1448.84 1061.59-1449 1028.29-1449.21 983.922-1430.21 964.922-1386.06 965-1348.96 965.066-1311.86 965.437-1274.76 965.3-1264.71 965.263-1260.58 968.019-1261.03 979.225-1262.26 1009.91-1261.7 1009.96-1293.27 1009.98-1325.94 1010-1358.61 1010.36-1391.26 1009.75-1402.07 1009.54-1405.48 1013.2-1404.89 1023.64-1404.14 1036.84-1404.72 1050.12-1404.72 1064.57Z" fill-rule="evenodd"/><path d="M-1228.01 1088.56C-1228.3 1050.41-1228.46 1013.46-1229 976.512-1229.11 968.385-1226.46 964.707-1217.91 965.018-1179.99 966.398-1185.88 957.183-1183.56 997.64-1183.17 1004.45-1183.04 1011.32-1183.52 1018.12-1184.2 1027.77-1179.75 1030.65-1170.62 1030.52-1146.05 1030.17-1121.46 1030.8-1096.9 1030.41-1062.21 1029.85-1040.44 1053-1042.09 1084.73-1043.5 1111.97-1042.61 1139.35-1042.29 1166.67-1042.19 1175.18-1044.69 1179.05-1053.93 1178.83-1092.84 1177.91-1086.4 1183.97-1086.9 1146.74-1087.16 1127.05-1087.34 1107.36-1086.96 1087.68-1086.79 1078.73-1089.21 1074.54-1099.16 1074.76-1123.32 1075.32-1147.51 1075.23-1171.67 1074.8-1180.62 1074.64-1183.76 1077.85-1183.62 1086.7-1183.19 1112.81-1183.74 1138.93-1183.17 1165.03-1182.95 1175.39-1186.31 1179.06-1197 1179-1228 1178.82-1228.02 1179.24-1228.03 1148.82-1228.04 1129.14-1228.02 1109.45-1228.01 1088.56Z" fill-rule="evenodd"/><path d="M-1906.3 1256.16C-1927.34 1239.65-1941.17 1219.61-1946.51 1193.82-1948.09 1186.15-1945.96 1183.16-1938.63 1182.97-1935.01 1182.88-1931.34 1183.15-1927.78 1182.63-1911.58 1180.27-1900.61 1184.14-1892.71 1201.06-1883.54 1220.69-1864.18 1229.9-1843.03 1230.17-1778.24 1230.97-1713.42 1230.9-1648.62 1230.24-1625.2 1230.01-1606.35 1219.09-1596.77 1196.94-1592.06 1186.03-1585.13 1182.61-1574.57 1182.95-1571.76 1183.04-1568.94 1182.88-1566.12 1182.9-1544.16 1183.06-1542.62 1185.24-1549.94 1205.82-1564.72 1247.4-1603.96 1275.73-1647.65 1275.85-1712.45 1276.03-1777.24 1275.78-1842.04 1276-1865.32 1276.08-1886.43 1269.82-1906.3 1256.16Z" fill="#FF0000" fill-rule="evenodd"/><path d="M-629.919 1081.27C-629.901 1059.57-629.731 1039.08-629.926 1018.59-630.008 1010.01-626.427 1006.19-617.71 1006.21-576.247 1006.32-534.772 1005.58-493.325 1006.37-463.723 1006.93-444.541 1026.38-443.578 1057.44-442.433 1094.36-443.369 1131.35-443.212 1168.31-443.18 1176.04-446.39 1178.97-454.129 1178.79-494.478 1177.84-487.294 1184.4-487.866 1146.46-488.29 1118.34-488.171 1090.21-487.915 1062.09-487.845 1054.26-489.714 1050.27-498.645 1050.42-523.999 1050.83-549.37 1050.82-574.723 1050.36-583.672 1050.19-585.478 1054.13-585.419 1061.98-585.156 1096.93-585.602 1131.89-585.13 1166.84-585.001 1176.4-588.091 1179.08-597.551 1179-629.859 1178.72-629.904 1179.07-629.985 1146.35-630.037 1125.06-629.943 1103.77-629.919 1081.27Z" fill-rule="evenodd"/><path d="M-1700.69 910.18C-1730.52 910.195-1759.13 909.919-1787.74 910.383-1797.57 910.543-1800.73 906.567-1799.86 897.415-1798.91 887.461-1798.44 877.463-1797.78 867.752-1793.1 863.988-1788.07 865.182-1783.43 865.172-1736.68 865.064-1689.93 864.884-1643.18 865.199-1593.23 865.535-1548.95 904.526-1542.74 954.255-1537.64 995.092-1541.39 1036.21-1540.57 1077.19-1540.45 1083.56-1543.2 1086.28-1549.9 1086.82-1586.75 1089.76-1586.7 1089.91-1586.8 1053.82-1586.89 1025.66-1586.44 997.475-1587.42 969.342-1588.6 935.776-1614.93 910.909-1648.7 910.324-1665.62 910.031-1682.55 910.212-1700.69 910.18Z" fill="#FF0000" fill-rule="evenodd"/><path d="M-978.672 1178.85C-1010.6 1178.85-1010.61 1178.85-1010.62 1148.38-1010.64 1119-1009.51 1089.56-1010.93 1060.25-1012.34 1031.06-992.439 1007.48-960.033 1006.38-936.232 1005.58-912.382 1006.32-888.556 1006.13-880.784 1006.08-877.865 1009.4-878.004 1017.09-878.732 1057.31-872.521 1049.69-909.426 1050.51-923.151 1050.82-936.93 1051.22-950.607 1050.36-962.005 1049.64-966.171 1053.07-965.941 1065.03-965.299 1098.42-965.959 1131.83-965.944 1165.24-965.94 1173.29-966.774 1180.11-978.672 1178.85Z" fill-rule="evenodd"/><path d="M-1766.93 1006.37C-1766.93 996.795-1766.93 988.412-1766.93 980.386-1735.51 973.833-1734.7 974.435-1734.54 1003.87-1734.47 1018.02-1734.22 1032.18-1734.64 1046.31-1734.92 1055.81-1731.05 1059.26-1721.76 1058.87-1708.97 1058.32-1696.11 1059.2-1683.33 1058.6-1673.63 1058.15-1670.21 1062.26-1671.15 1071.47-1671.48 1074.67-1671.37 1077.95-1671.19 1081.17-1670.86 1087.16-1673.1 1090.05-1679.48 1090-1705.56 1089.78-1731.64 1089.72-1757.72 1089.89-1765.47 1089.94-1767.04 1085.72-1767 1079.13-1766.86 1055.28-1766.94 1031.42-1766.93 1006.37Z" fill="#FF0000" fill-rule="evenodd"/><path d="M-1901.5 999.061C-1905.19 992.412-1910.1 990.034-1916.93 990.221-1928.25 990.531-1939.58 990.278-1950.91 990.302-1958.99 990.318-1966.71 990.631-1974.07 995.343-1981.65 1000.2-1990.33 999.169-1996.12 992.373-2001.55 986-2003.23 977.833-1997.11 970.468-1991.05 963.167-1982.89 961-1974.25 964.994-1953.29 974.681-1931.27 968.03-1909.82 969.693-1906.18 969.975-1904.53 966.723-1902.48 964.19-1889.58 948.217-1868.91 945.377-1854.7 957.466-1842.2 968.103-1841.7 988.874-1853.65 1001.43-1866.45 1014.87-1885.49 1014.22-1901.5 999.061M-1885.56 977.364C-1886.46 983.978-1884.9 989.361-1877.42 990.842-1872.04 991.904-1867.7 989.63-1866 984.493-1864.07 978.663-1865.7 973.222-1871.37 970.268-1877.6 967.032-1882.02 970.128-1885.56 977.364Z" fill="#FF0000" fill-rule="evenodd"/><path d="M-1869.11 1117.34C-1883.45 1119.57-1894.92 1116.4-1902.06 1103.92-1905.44 1098.01-1910.15 1096.97-1916.16 1097.03-1933.01 1097.21-1949.87 1096.92-1966.72 1097.1-1974.05 1097.17-1979 1095.94-1979 1086.64-1978.99 1076.88-1973.04 1076.54-1966.25 1076.54-1951 1076.53-1935.73 1076.19-1920.5 1076.74-1911.56 1077.07-1904.99 1075.09-1898.56 1067.76-1886.97 1054.54-1869.27 1053.76-1856.24 1064.01-1844.51 1073.25-1841.65 1089.55-1849.14 1103.57-1853.29 1111.33-1859.96 1115.24-1869.11 1117.34M-1866.71 1082.32C-1870.17 1077.21-1874.98 1076.32-1880.36 1078.26-1884.08 1079.59-1885.85 1082.61-1885.89 1086.69-1885.95 1093.85-1882.46 1099.22-1875.59 1098.77-1867.51 1098.23-1864.35 1092.14-1866.71 1082.32Z" fill="#FF0000" fill-rule="evenodd"/><path d="M-1581.7 1152.38C-1592.41 1151.73-1600.03 1153.11-1606.67 1162.22-1616.02 1175.03-1638.08 1174.9-1650.11 1163.92-1661.44 1153.57-1662.05 1132.31-1651.33 1121.36-1639.48 1109.25-1617.86 1108.41-1607.01 1121.67-1599.79 1130.5-1592.17 1132.17-1582.01 1131.77-1567.53 1131.19-1553.01 1131.79-1538.51 1131.53-1530.55 1131.39-1528.05 1135.17-1528 1142.59-1527.95 1150.01-1531.27 1152.47-1538.26 1152.37-1552.36 1152.17-1566.46 1152.36-1581.7 1152.38M-1639.2 1137.49C-1640.5 1144.39-1639.78 1150.7-1631.84 1152.76-1626.57 1154.13-1622.18 1151.06-1620.18 1146.38-1618.23 1141.84-1618.46 1136.65-1622.9 1133.3-1628.71 1128.91-1634.08 1130.12-1639.2 1137.49Z" fill="#FF0000" fill-rule="evenodd"/><path d="M-1925.91 1151.9C-1941.05 1151.88-1955.06 1151.62-1969.05 1151.99-1976.44 1152.19-1979 1148.94-1979 1141.91-1979 1135.38-1977.6 1130.84-1969.85 1130.94-1957.86 1131.1-1945.86 1130.96-1933.86 1130.89-1925.5 1130.85-1917.18 1131.42-1909.03 1128.13-1900.96 1124.87-1898.95 1128.98-1900.46 1136.55-1902.86 1148.52-1907.96 1151.85-1925.91 1151.9Z" fill="#FF0000" fill-rule="evenodd"/><path d="M-1970.59 1047.82C-1980.59 1047.4-1978.92 1040.96-1978.86 1035.6-1978.79 1029.91-1974.76 1028.11-1969.96 1028.06-1956.28 1027.93-1942.59 1028.03-1928.91 1028.19-1920.99 1028.29-1918.98 1033.15-1919 1040.1-1919.02 1047.71-1923.97 1048.03-1929.57 1048-1942.86 1047.93-1956.15 1047.92-1970.59 1047.82Z" fill="#FF0000" fill-rule="evenodd"/></g></svg>